STARTFONT 2.1
FONT -FontForge-ITC Benguiat Gothic Std-Medium-R-Normal--28-200-100-100-P-145-ISO8859-1
SIZE 20 100 100
FONTBOUNDINGBOX 33 33 -5 -7
COMMENT "Generated by fontforge, http://fontforge.sourceforge.net"
COMMENT "Copyright 1990, 1995 , 2002Adobe Systems Incorporated. All Rights Reserved. ITC Benguiat Gothic is a registered trademark of International Typeface Corporation."
STARTPROPERTIES 40
FOUNDRY "FontForge"
FAMILY_NAME "ITC Benguiat Gothic Std"
WEIGHT_NAME "Medium"
SLANT "R"
SETWIDTH_NAME "Normal"
ADD_STYLE_NAME ""
PIXEL_SIZE 28
POINT_SIZE 200
RESOLUTION_X 100
RESOLUTION_Y 100
SPACING "P"
AVERAGE_WIDTH 145
CHARSET_REGISTRY "ISO8859"
CHARSET_ENCODING "1"
FONTNAME_REGISTRY ""
CHARSET_COLLECTIONS "ISOLatin1Encoding"
FONT_NAME "BenguiatGothicStd-Medium"
FACE_NAME "ITC Benguiat Gothic Std Medium"
COPYRIGHT "Copyright 1990, 1995 , 2002Adobe Systems Incorporated. All Rights Reserved. ITC Benguiat Gothic is a registered trademark of International Typeface Corporation."
FONT_VERSION "001.001"
FONT_ASCENT 19
FONT_DESCENT 9
UNDERLINE_POSITION -3
UNDERLINE_THICKNESS 2
X_HEIGHT 14
CAP_HEIGHT 19
RAW_ASCENT 691
RAW_DESCENT 309
NORM_SPACE 9
RELATIVE_WEIGHT 50
RELATIVE_SETWIDTH 50
SUPERSCRIPT_X 0
SUPERSCRIPT_Y 9
SUPERSCRIPT_SIZE 16
SUBSCRIPT_X 0
SUBSCRIPT_Y 2
SUBSCRIPT_SIZE 16
FIGURE_WIDTH 17
AVG_LOWERCASE_WIDTH 140
AVG_UPPERCASE_WIDTH 168
ENDPROPERTIES
CHARS 253
STARTCHAR space
ENCODING 32
SWIDTH 305 0
DWIDTH 9 0
BBX 1 1 0 0
BITMAP
00
ENDCHAR
STARTCHAR exclam
ENCODING 33
SWIDTH 278 0
DWIDTH 8 0
BBX 2 20 3 0
BITMAP
C0
C0
C0
C0
C0
C0
C0
C0
C0
C0
C0
C0
C0
C0
C0
00
00
C0
C0
C0
ENDCHAR
STARTCHAR quotedbl
ENCODING 34
SWIDTH 333 0
DWIDTH 9 0
BBX 7 7 1 13
BITMAP
66
E6
E6
E6
E6
E6
66
ENDCHAR
STARTCHAR numbersign
ENCODING 35
SWIDTH 611 0
DWIDTH 17 0
BBX 13 20 2 0
BITMAP
0C30
0C70
0C60
0C60
0C60
0C60
FFF8
FFF8
1860
18C0
18C0
18C0
FFF8
FFF8
30C0
30C0
3180
3180
3180
3180
ENDCHAR
STARTCHAR dollar
ENCODING 36
SWIDTH 611 0
DWIDTH 17 0
BBX 13 23 1 -2
BITMAP
0200
0600
0600
0600
3FE0
7FE0
6000
6000
7F00
3FE0
06F0
0638
0618
0618
0618
0638
0670
7FE0
FFC0
0600
0600
0600
0200
ENDCHAR
STARTCHAR percent
ENCODING 37
SWIDTH 833 0
DWIDTH 23 0
BBX 20 20 2 0
BITMAP
3C0600
7E0600
E70C00
C30C00
C31800
C31800
C33000
E73000
7E6000
3C6000
00E000
00C780
01CFE0
019C60
039870
031830
071870
061C60
060FE0
040780
ENDCHAR
STARTCHAR ampersand
ENCODING 38
SWIDTH 778 0
DWIDTH 22 0
BBX 19 20 2 0
BITMAP
078000
1FE000
3CE000
387000
307200
387700
386300
3CE300
7FC300
678300
E3C300
C1E300
C0F300
C03F00
C01E00
E00F00
F01F80
7C7BC0
3FF0E0
0FC060
ENDCHAR
STARTCHAR quotesingle
ENCODING 39
SWIDTH 222 0
DWIDTH 6 0
BBX 2 7 2 13
BITMAP
C0
C0
C0
C0
C0
C0
C0
ENDCHAR
STARTCHAR parenleft
ENCODING 40
SWIDTH 389 0
DWIDTH 11 0
BBX 7 26 2 -6
BITMAP
02
0E
0C
1C
38
30
70
60
60
E0
E0
C0
C0
C0
C0
E0
E0
60
60
70
30
38
18
1C
0E
06
ENDCHAR
STARTCHAR parenright
ENCODING 41
SWIDTH 389 0
DWIDTH 11 0
BBX 7 26 2 -6
BITMAP
80
C0
E0
70
38
18
1C
1C
0C
0C
0E
0E
0E
0E
0E
0E
0E
0C
0C
1C
18
38
70
60
E0
C0
ENDCHAR
STARTCHAR asterisk
ENCODING 42
SWIDTH 333 0
DWIDTH 9 0
BBX 7 8 1 12
BITMAP
10
10
D6
FE
38
FE
92
10
ENDCHAR
STARTCHAR plus
ENCODING 43
SWIDTH 600 0
DWIDTH 17 0
BBX 15 15 1 0
BITMAP
0380
0380
0380
0380
0380
0380
0380
FFFE
FFFE
0380
0380
0380
0380
0380
0380
ENDCHAR
STARTCHAR comma
ENCODING 44
SWIDTH 305 0
DWIDTH 9 0
BBX 5 7 1 -3
BITMAP
18
38
30
70
70
60
E0
ENDCHAR
STARTCHAR hyphen
ENCODING 45
SWIDTH 333 0
DWIDTH 9 0
BBX 7 2 1 6
BITMAP
FE
FE
ENDCHAR
STARTCHAR period
ENCODING 46
SWIDTH 305 0
DWIDTH 9 0
BBX 3 3 3 0
BITMAP
C0
E0
C0
ENDCHAR
STARTCHAR slash
ENCODING 47
SWIDTH 278 0
DWIDTH 8 0
BBX 10 20 -1 0
BITMAP
00C0
01C0
0180
0380
0300
0300
0700
0600
0E00
0C00
1C00
1800
1800
3800
3000
7000
6000
6000
E000
C000
ENDCHAR
STARTCHAR zero
ENCODING 48
SWIDTH 611 0
DWIDTH 17 0
BBX 15 20 1 0
BITMAP
07C0
0FE0
1C70
3838
701C
600C
600E
E00E
E00E
E006
E006
E00E
E00E
600C
600C
701C
3838
1C70
0FE0
07C0
ENDCHAR
STARTCHAR one
ENCODING 49
SWIDTH 611 0
DWIDTH 17 0
BBX 10 20 4 0
BITMAP
0C00
FC00
FC00
0C00
0C00
0C00
0C00
0C00
0C00
0C00
0C00
0C00
0C00
0C00
0C00
0C00
0C00
0C00
FFC0
FFC0
ENDCHAR
STARTCHAR two
ENCODING 50
SWIDTH 611 0
DWIDTH 17 0
BBX 13 20 2 0
BITMAP
FFC0
FFE0
00F0
0070
0030
0030
0070
0070
01E0
03C0
0F80
1F00
3C00
7800
E000
E000
C000
C000
FFF8
FFF8
ENDCHAR
STARTCHAR three
ENCODING 51
SWIDTH 611 0
DWIDTH 17 0
BBX 13 20 2 0
BITMAP
FFE0
FFE0
01C0
0780
0F00
1C00
3F80
3FE0
01F0
0070
0038
0038
0018
0018
0038
0038
0070
01F0
FFE0
FF80
ENDCHAR
STARTCHAR four
ENCODING 52
SWIDTH 611 0
DWIDTH 17 0
BBX 15 20 1 0
BITMAP
0070
01F0
03F0
0770
0E70
1C70
1870
3870
3070
7070
6070
E070
E070
FFFE
FFFE
0070
0070
0070
0070
0030
ENDCHAR
STARTCHAR five
ENCODING 53
SWIDTH 611 0
DWIDTH 17 0
BBX 14 20 2 0
BITMAP
7FE0
7FF0
6000
6000
E000
FF00
FFC0
0FF0
0070
0038
0018
001C
001C
001C
001C
0038
0038
01F0
FFE0
FF80
ENDCHAR
STARTCHAR six
ENCODING 54
SWIDTH 611 0
DWIDTH 17 0
BBX 15 20 1 0
BITMAP
07FC
1FFC
3E00
3800
7000
6000
67F0
EFF8
FC3C
F81E
F00E
F00E
E006
E006
700E
700E
381C
3E78
1FF0
07E0
ENDCHAR
STARTCHAR seven
ENCODING 55
SWIDTH 611 0
DWIDTH 17 0
BBX 12 20 2 0
BITMAP
FFF0
FFF0
0030
0030
0070
0060
00E0
00C0
01C0
0380
0380
0700
0E00
0E00
1C00
1C00
1C00
1800
1800
1800
ENDCHAR
STARTCHAR eight
ENCODING 56
SWIDTH 611 0
DWIDTH 17 0
BBX 15 20 1 0
BITMAP
07C0
1FF0
3C78
7018
701C
701C
7018
3838
1FF0
1FF0
3838
701C
E00E
E00E
E00E
E00E
701C
783C
1FF8
0FE0
ENDCHAR
STARTCHAR nine
ENCODING 57
SWIDTH 611 0
DWIDTH 17 0
BBX 15 20 1 0
BITMAP
0FC0
1FF0
3CF8
7038
E01C
E01C
E00E
C00E
E01E
E01E
703E
787E
3FEE
1FCE
000C
001C
0038
00F8
7FF0
7FC0
ENDCHAR
STARTCHAR colon
ENCODING 58
SWIDTH 305 0
DWIDTH 9 0
BBX 3 12 3 0
BITMAP
C0
E0
C0
00
00
00
00
00
00
C0
E0
C0
ENDCHAR
STARTCHAR semicolon
ENCODING 59
SWIDTH 305 0
DWIDTH 9 0
BBX 5 15 1 -4
BITMAP
38
38
30
00
00
00
00
00
38
30
70
60
60
E0
C0
ENDCHAR
STARTCHAR less
ENCODING 60
SWIDTH 600 0
DWIDTH 17 0
BBX 15 15 1 0
BITMAP
0006
001E
007C
01F0
07C0
3F00
F800
E000
F800
3F00
07C0
01F0
007C
001E
0006
ENDCHAR
STARTCHAR equal
ENCODING 61
SWIDTH 600 0
DWIDTH 17 0
BBX 15 8 1 3
BITMAP
FFFE
FFFE
0000
0000
0000
0000
FFFE
FFFE
ENDCHAR
STARTCHAR greater
ENCODING 62
SWIDTH 600 0
DWIDTH 17 0
BBX 15 15 1 0
BITMAP
8000
F000
FC00
1F00
07C0
01F0
007E
000E
007E
01F0
07C0
1F00
FC00
F000
8000
ENDCHAR
STARTCHAR question
ENCODING 63
SWIDTH 500 0
DWIDTH 14 0
BBX 11 20 1 0
BITMAP
FF80
FFC0
01E0
0060
0060
0060
00E0
00E0
03C0
0780
0F00
1E00
1C00
1800
1800
0000
0000
1800
1800
1800
ENDCHAR
STARTCHAR at
ENCODING 64
SWIDTH 800 0
DWIDTH 22 0
BBX 20 20 1 0
BITMAP
01FC00
07FF00
0E03C0
1800C0
30F360
71FB30
63CF30
670630
E70630
E60630
E60630
EE0C60
661C60
673CC0
77FF80
39CE60
1C00C0
0E0380
07FF00
01FC00
ENDCHAR
STARTCHAR A
ENCODING 65
SWIDTH 667 0
DWIDTH 19 0
BBX 17 20 1 0
BITMAP
018000
03C000
07E000
077000
0E7000
0C3800
1C1800
181C00
3F0C00
3FCC00
31FE00
703E00
701E00
600F00
E00700
E00700
E00300
E00380
C00380
C00380
ENDCHAR
STARTCHAR B
ENCODING 66
SWIDTH 611 0
DWIDTH 17 0
BBX 14 20 2 0
BITMAP
FFE0
FFF0
C078
C038
C018
FC38
FFF0
CFE0
C0F0
C078
C038
C01C
C01C
C00C
C00C
C01C
C01C
C078
FFF8
FFE0
ENDCHAR
STARTCHAR C
ENCODING 67
SWIDTH 611 0
DWIDTH 17 0
BBX 15 20 1 0
BITMAP
07FE
1FFE
3E00
7800
7000
E000
E000
E000
E000
E000
E000
6000
7000
7800
3800
1E00
0F00
07F0
03FE
007E
ENDCHAR
STARTCHAR D
ENCODING 68
SWIDTH 667 0
DWIDTH 19 0
BBX 15 20 2 0
BITMAP
FC00
FF80
DFE0
C1F0
C078
C03C
C01C
C00E
C00E
C006
C006
C006
C006
C006
C00E
C00E
C01C
C07C
FFF8
FFE0
ENDCHAR
STARTCHAR E
ENCODING 69
SWIDTH 556 0
DWIDTH 16 0
BBX 12 20 2 0
BITMAP
FFF0
FFF0
E000
E000
E000
FFF0
FFF0
E000
E000
E000
E000
E000
E000
E000
E000
E000
E000
E000
FFF0
FFF0
ENDCHAR
STARTCHAR F
ENCODING 70
SWIDTH 500 0
DWIDTH 14 0
BBX 12 20 2 0
BITMAP
FFF0
FFF0
E000
E000
E000
FFE0
FFE0
E000
E000
E000
E000
E000
E000
E000
E000
E000
E000
E000
E000
C000
ENDCHAR
STARTCHAR G
ENCODING 71
SWIDTH 667 0
DWIDTH 19 0
BBX 16 20 1 0
BITMAP
07FE
1FFE
3E00
7000
7000
E0FF
E0FF
E003
E003
E003
E003
E003
7003
7003
3803
3C03
1F03
07E3
03FF
007F
ENDCHAR
STARTCHAR H
ENCODING 72
SWIDTH 611 0
DWIDTH 17 0
BBX 13 20 2 0
BITMAP
C018
E018
E018
E018
E018
FFF8
FFF8
E018
E018
E018
E018
E018
E018
E018
E018
E018
E018
E018
E018
C018
ENDCHAR
STARTCHAR I
ENCODING 73
SWIDTH 222 0
DWIDTH 6 0
BBX 2 20 2 0
BITMAP
C0
C0
C0
C0
C0
C0
C0
C0
C0
C0
C0
C0
C0
C0
C0
C0
C0
C0
C0
C0
ENDCHAR
STARTCHAR J
ENCODING 74
SWIDTH 444 0
DWIDTH 12 0
BBX 11 20 -1 0
BITMAP
0060
0060
0060
0060
0060
0060
0060
0060
0060
0060
0060
0060
0060
0060
0060
00E0
00E0
FBC0
FFC0
3F00
ENDCHAR
STARTCHAR K
ENCODING 75
SWIDTH 611 0
DWIDTH 17 0
BBX 14 20 2 0
BITMAP
C018
E038
E038
E030
E070
E1E0
FFC0
FF80
E3C0
E1E0
E0F0
E070
E038
E038
E01C
E01C
E01C
E00C
E00C
C00C
ENDCHAR
STARTCHAR L
ENCODING 76
SWIDTH 444 0
DWIDTH 12 0
BBX 10 20 2 0
BITMAP
C000
E000
E000
E000
E000
E000
E000
E000
E000
E000
E000
E000
E000
E000
E000
E000
E000
E000
FFC0
FFC0
ENDCHAR
STARTCHAR M
ENCODING 77
SWIDTH 722 0
DWIDTH 20 0
BBX 16 20 2 0
BITMAP
300C
700E
781E
781E
7C3E
6C36
6E77
E7E7
E7E3
E3C3
C183
C003
C003
C003
C003
C003
C003
C003
C003
C003
ENDCHAR
STARTCHAR N
ENCODING 78
SWIDTH 611 0
DWIDTH 17 0
BBX 13 20 2 0
BITMAP
E018
F018
F018
F818
DC18
CF18
C7F8
C1F8
C038
C018
C018
C018
C018
C018
C018
C018
C018
C018
C018
C018
ENDCHAR
STARTCHAR O
ENCODING 79
SWIDTH 722 0
DWIDTH 20 0
BBX 18 20 1 0
BITMAP
03F000
0FFC00
1F3E00
3C0F00
380780
700380
7001C0
E001C0
E001C0
E001C0
E001C0
E001C0
E001C0
7001C0
700380
380780
3C0F00
1F1E00
0FFC00
03F000
ENDCHAR
STARTCHAR P
ENCODING 80
SWIDTH 556 0
DWIDTH 16 0
BBX 13 20 2 0
BITMAP
FFF0
FFF8
E038
E018
E018
E038
E0F0
E3E0
FFC0
FF00
F800
E000
E000
E000
E000
E000
E000
E000
E000
C000
ENDCHAR
STARTCHAR Q
ENCODING 81
SWIDTH 722 0
DWIDTH 20 0
BBX 18 23 1 -3
BITMAP
03F000
0FFC00
1F3E00
3C0F00
380780
700380
700180
E001C0
E001C0
E001C0
E001C0
E001C0
E001C0
67C1C0
77E380
78E780
3C7F00
1F3E00
0FFC00
03FC00
000E00
000FC0
0003C0
ENDCHAR
STARTCHAR R
ENCODING 82
SWIDTH 667 0
DWIDTH 19 0
BBX 16 20 2 0
BITMAP
FFF0
FFF8
E03C
E01C
E00C
FC1C
FFB8
FFF8
E1F0
E070
E038
E01C
E01C
E00E
E00E
E006
E007
E007
E007
C002
ENDCHAR
STARTCHAR S
ENCODING 83
SWIDTH 611 0
DWIDTH 17 0
BBX 15 20 1 0
BITMAP
3FF0
7FF8
F000
E000
E000
F000
7FE0
3FF8
01FC
001E
000E
000E
000E
000E
000E
000E
001C
00F8
FFF0
FFC0
ENDCHAR
STARTCHAR T
ENCODING 84
SWIDTH 500 0
DWIDTH 14 0
BBX 14 20 0 0
BITMAP
FFFC
FFFC
0300
0300
0300
0300
0300
0300
0300
0300
0300
0300
0300
0300
0300
0300
0300
0300
0300
0300
ENDCHAR
STARTCHAR U
ENCODING 85
SWIDTH 611 0
DWIDTH 17 0
BBX 15 20 1 0
BITMAP
3018
701C
701C
701C
600C
600C
600C
600C
600E
E00E
E00E
E00E
C006
E006
E00E
E00E
701C
7EFC
1FF0
0FC0
ENDCHAR
STARTCHAR V
ENCODING 86
SWIDTH 611 0
DWIDTH 17 0
BBX 15 20 1 0
BITMAP
C006
C006
C006
E00E
E00E
E00E
600C
600C
701C
701C
3018
3838
1830
1830
1C70
0C60
0EE0
07C0
0380
0180
ENDCHAR
STARTCHAR W
ENCODING 87
SWIDTH 833 0
DWIDTH 23 0
BBX 21 20 1 0
BITMAP
C03018
E07018
E07018
E07018
E07018
E07018
E07838
E07838
60F838
60D830
70D830
70DC70
31DC70
31CC60
398C60
3B8EE0
1F06C0
1F07C0
0F0380
060180
ENDCHAR
STARTCHAR X
ENCODING 88
SWIDTH 611 0
DWIDTH 17 0
BBX 15 20 1 0
BITMAP
600C
701C
701C
3838
1C70
0EE0
07C0
03C0
0FE0
1EF0
1C70
3838
301C
701C
600C
E00E
E00E
E00E
C006
C006
ENDCHAR
STARTCHAR Y
ENCODING 89
SWIDTH 556 0
DWIDTH 16 0
BBX 14 20 1 0
BITMAP
C00C
C01C
E01C
E038
7038
7070
3870
1CE0
1FC0
0F80
0700
0300
0300
0300
0300
0300
0300
0300
0300
0300
ENDCHAR
STARTCHAR Z
ENCODING 90
SWIDTH 500 0
DWIDTH 14 0
BBX 12 20 1 0
BITMAP
7FE0
7FF0
0070
0070
0060
00E0
00E0
01C0
0380
0700
0F00
1E00
3C00
7800
7000
E000
E000
C000
FFF0
FFF0
ENDCHAR
STARTCHAR bracketleft
ENCODING 91
SWIDTH 389 0
DWIDTH 11 0
BBX 7 26 2 -6
BITMAP
7E
FE
E0
E0
E0
E0
E0
E0
E0
E0
E0
E0
E0
E0
E0
E0
E0
E0
E0
E0
E0
E0
E0
E0
FC
7E
ENDCHAR
STARTCHAR backslash
ENCODING 92
SWIDTH 278 0
DWIDTH 8 0
BBX 10 20 -1 0
BITMAP
C000
E000
6000
6000
7000
3000
3800
1800
1800
1C00
0C00
0E00
0600
0700
0300
0300
0380
0180
01C0
00C0
ENDCHAR
STARTCHAR bracketright
ENCODING 93
SWIDTH 389 0
DWIDTH 11 0
BBX 6 26 2 -6
BITMAP
FC
FC
0C
0C
0C
0C
0C
0C
0C
0C
0C
0C
0C
0C
0C
0C
0C
0C
0C
0C
0C
0C
0C
0C
FC
FC
ENDCHAR
STARTCHAR asciicircum
ENCODING 94
SWIDTH 600 0
DWIDTH 17 0
BBX 13 12 2 8
BITMAP
0700
0700
0F80
0D80
19C0
18C0
30E0
3060
7070
6030
E038
C018
ENDCHAR
STARTCHAR underscore
ENCODING 95
SWIDTH 500 0
DWIDTH 14 0
BBX 14 1 0 -3
BITMAP
FFFC
ENDCHAR
STARTCHAR grave
ENCODING 96
SWIDTH 222 0
DWIDTH 6 0
BBX 8 4 -1 16
BITMAP
60
F8
3F
07
ENDCHAR
STARTCHAR a
ENCODING 97
SWIDTH 500 0
DWIDTH 14 0
BBX 12 15 0 0
BITMAP
3FC0
7FE0
0070
0030
0030
07F0
1FF0
7C30
7030
E030
E030
E070
7070
7FF0
1F30
ENDCHAR
STARTCHAR b
ENCODING 98
SWIDTH 556 0
DWIDTH 16 0
BBX 13 20 2 0
BITMAP
C000
C000
C000
C000
C000
FC00
FF80
CFC0
C1E0
C0F0
C070
C030
C030
C038
C030
C030
C070
C1F0
FFE0
FF80
ENDCHAR
STARTCHAR c
ENCODING 99
SWIDTH 500 0
DWIDTH 14 0
BBX 13 15 1 0
BITMAP
1FF0
3FF0
7800
7000
E000
E000
E000
E000
E000
6000
7000
3800
3F00
0FF8
03F8
ENDCHAR
STARTCHAR d
ENCODING 100
SWIDTH 556 0
DWIDTH 16 0
BBX 13 20 1 0
BITMAP
0018
0038
0038
0038
0038
03F8
0FF8
3FB8
3C38
7038
6038
E038
E038
E038
E038
E038
E038
7838
3FF8
0FF8
ENDCHAR
STARTCHAR e
ENCODING 101
SWIDTH 556 0
DWIDTH 16 0
BBX 14 15 1 0
BITMAP
0FC0
1FE0
3870
7038
6018
E018
FFF8
FFF8
E000
E000
6000
7000
3800
3FFC
0FF8
ENDCHAR
STARTCHAR f
ENCODING 102
SWIDTH 333 0
DWIDTH 9 0
BBX 9 20 1 0
BITMAP
0F80
1F80
3C00
3800
3800
FF00
FF00
3800
3800
3800
3800
3800
3800
3800
3800
3800
3800
3800
3800
3000
ENDCHAR
STARTCHAR g
ENCODING 103
SWIDTH 556 0
DWIDTH 16 0
BBX 14 21 1 -6
BITMAP
03F8
1FFC
3E30
7830
7030
E030
E030
E030
C030
E030
E030
6030
7838
3FF8
0FFC
000C
000C
000C
F03C
FFF8
3FC0
ENDCHAR
STARTCHAR h
ENCODING 104
SWIDTH 556 0
DWIDTH 16 0
BBX 12 20 2 0
BITMAP
C000
C000
C000
C000
C000
CF80
DFC0
F9E0
E060
E070
C070
C070
C070
C070
C070
C070
C070
C070
C070
C060
ENDCHAR
STARTCHAR i
ENCODING 105
SWIDTH 222 0
DWIDTH 6 0
BBX 2 20 2 0
BITMAP
C0
C0
C0
00
00
C0
C0
C0
C0
C0
C0
C0
C0
C0
C0
C0
C0
C0
C0
C0
ENDCHAR
STARTCHAR j
ENCODING 106
SWIDTH 222 0
DWIDTH 6 0
BBX 9 26 -5 -6
BITMAP
0180
0180
0180
0000
0000
0180
0180
0180
0180
0180
0180
0180
0180
0180
0180
0180
0180
0180
0180
0180
0180
0180
0380
0780
FF00
7E00
ENDCHAR
STARTCHAR k
ENCODING 107
SWIDTH 500 0
DWIDTH 14 0
BBX 12 20 2 0
BITMAP
C000
C000
C000
C000
C000
C040
C0E0
C1C0
C3C0
DF00
FE00
DF80
C3C0
C1C0
C0E0
C0E0
C060
C070
C070
C060
ENDCHAR
STARTCHAR l
ENCODING 108
SWIDTH 222 0
DWIDTH 6 0
BBX 2 20 2 0
BITMAP
C0
C0
C0
C0
C0
C0
C0
C0
C0
C0
C0
C0
C0
C0
C0
C0
C0
C0
C0
C0
ENDCHAR
STARTCHAR m
ENCODING 109
SWIDTH 889 0
DWIDTH 25 0
BBX 21 15 2 0
BITMAP
CF87C0
DFCFF0
F9FC70
E07838
E07038
C07018
C07018
C07018
C07018
C07018
C07018
C07018
C07018
C07018
C06018
ENDCHAR
STARTCHAR n
ENCODING 110
SWIDTH 556 0
DWIDTH 16 0
BBX 12 15 2 0
BITMAP
CF80
DFC0
F9E0
E060
E070
C070
C070
C070
C070
C070
C070
C070
C070
C070
C060
ENDCHAR
STARTCHAR o
ENCODING 111
SWIDTH 556 0
DWIDTH 16 0
BBX 13 15 1 0
BITMAP
0F80
1FE0
38F0
7030
6038
E018
E018
C018
E018
E018
6038
7038
38F0
1FE0
0F80
ENDCHAR
STARTCHAR p
ENCODING 112
SWIDTH 556 0
DWIDTH 16 0
BBX 13 21 2 -6
BITMAP
FE00
FF80
C7C0
C1E0
C070
C070
C030
C038
C038
C030
C030
C070
C1E0
FFC0
FF80
C000
C000
C000
C000
C000
C000
ENDCHAR
STARTCHAR q
ENCODING 113
SWIDTH 556 0
DWIDTH 16 0
BBX 13 21 1 -6
BITMAP
03F8
0FF8
3F38
3838
7038
E038
E038
E038
E038
E038
E038
7038
7838
3FF8
0FF8
0038
0038
0038
0038
0038
0018
ENDCHAR
STARTCHAR r
ENCODING 114
SWIDTH 333 0
DWIDTH 9 0
BBX 7 15 2 0
BITMAP
CE
DE
F8
E0
E0
C0
C0
C0
C0
C0
C0
C0
C0
C0
C0
ENDCHAR
STARTCHAR s
ENCODING 115
SWIDTH 500 0
DWIDTH 14 0
BBX 12 15 1 0
BITMAP
3FE0
7FE0
E000
E000
F800
7FC0
1FE0
00F0
0030
0030
0030
0070
00F0
FFE0
FF80
ENDCHAR
STARTCHAR t
ENCODING 116
SWIDTH 333 0
DWIDTH 9 0
BBX 8 19 1 0
BITMAP
10
30
30
30
FF
FF
30
30
30
30
30
30
30
30
30
38
38
3F
1F
ENDCHAR
STARTCHAR u
ENCODING 117
SWIDTH 556 0
DWIDTH 16 0
BBX 12 15 2 0
BITMAP
C060
C070
C070
C070
C070
C070
C070
C070
C070
C070
E070
E0F0
F3F0
7FB0
1F30
ENDCHAR
STARTCHAR v
ENCODING 118
SWIDTH 500 0
DWIDTH 14 0
BBX 12 15 1 0
BITMAP
C030
C030
C030
C030
E070
E070
6060
60E0
70E0
30C0
39C0
1F80
1F80
0F00
0600
ENDCHAR
STARTCHAR w
ENCODING 119
SWIDTH 722 0
DWIDTH 20 0
BBX 18 15 1 0
BITMAP
C0C0C0
C0C0C0
C0C0C0
C0E0C0
C1E0C0
C1E0C0
E1E0C0
E1F1C0
63B1C0
633180
773980
361B80
3E1F00
1C0F00
1C0600
ENDCHAR
STARTCHAR x
ENCODING 120
SWIDTH 500 0
DWIDTH 14 0
BBX 12 15 1 0
BITMAP
4060
E070
6060
70E0
79E0
3FC0
1F80
1F80
39C0
70E0
E060
E070
C030
C030
C030
ENDCHAR
STARTCHAR y
ENCODING 121
SWIDTH 500 0
DWIDTH 14 0
BBX 13 21 1 -6
BITMAP
C010
C038
C038
E030
E030
E070
6070
7060
70E0
30E0
39C0
19C0
1F80
0F00
0700
0E00
0E00
1C00
3800
3800
3000
ENDCHAR
STARTCHAR z
ENCODING 122
SWIDTH 444 0
DWIDTH 12 0
BBX 11 15 1 0
BITMAP
7FC0
FFE0
00E0
01C0
03C0
0780
0F00
1E00
3C00
7800
F000
E000
C000
FFE0
FFE0
ENDCHAR
STARTCHAR braceleft
ENCODING 123
SWIDTH 389 0
DWIDTH 11 0
BBX 9 27 1 -6
BITMAP
0700
1F80
1800
1800
1800
1800
1800
1800
1800
1800
3800
3800
7000
E000
F000
3000
3800
1800
1800
1800
1800
1800
1800
1800
1800
1F00
0F80
ENDCHAR
STARTCHAR bar
ENCODING 124
SWIDTH 222 0
DWIDTH 6 0
BBX 2 28 2 -7
BITMAP
C0
C0
C0
C0
C0
C0
C0
C0
C0
C0
C0
C0
C0
C0
C0
C0
C0
C0
C0
C0
C0
C0
C0
C0
C0
C0
C0
C0
ENDCHAR
STARTCHAR braceright
ENCODING 125
SWIDTH 389 0
DWIDTH 11 0
BBX 9 27 1 -6
BITMAP
7000
FC00
0C00
0C00
0C00
0C00
0C00
0C00
0C00
0C00
0C00
0E00
0600
0380
0780
0E00
0E00
0C00
0C00
0C00
0C00
0C00
0C00
0C00
0C00
FC00
F800
ENDCHAR
STARTCHAR asciitilde
ENCODING 126
SWIDTH 600 0
DWIDTH 17 0
BBX 13 4 2 5
BITMAP
7C10
FF38
C7F0
81E0
ENDCHAR
STARTCHAR uni00A0
ENCODING 160
SWIDTH 305 0
DWIDTH 9 0
BBX 1 1 0 0
BITMAP
00
ENDCHAR
STARTCHAR exclamdown
ENCODING 161
SWIDTH 278 0
DWIDTH 8 0
BBX 2 20 3 -6
BITMAP
C0
C0
C0
00
00
C0
C0
C0
C0
C0
C0
C0
C0
C0
C0
C0
C0
C0
C0
C0
ENDCHAR
STARTCHAR cent
ENCODING 162
SWIDTH 611 0
DWIDTH 17 0
BBX 11 20 3 0
BITMAP
0600
0600
0600
0600
3FC0
7FC0
E600
C600
C600
C600
C600
E600
F600
7E00
3FE0
0FE0
0600
0600
0600
0600
ENDCHAR
STARTCHAR sterling
ENCODING 163
SWIDTH 611 0
DWIDTH 17 0
BBX 15 20 0 0
BITMAP
007C
01FE
03CE
0300
0700
0700
0700
0700
1FFC
1FFC
0700
0700
0700
0700
0700
0600
0600
3F84
FFFE
E1FC
ENDCHAR
STARTCHAR currency
ENCODING 164
SWIDTH 611 0
DWIDTH 17 0
BBX 13 14 2 3
BITMAP
8F88
FFF8
78F0
6038
E038
C018
C018
C018
C018
C018
E038
78F0
FFF8
CFD8
ENDCHAR
STARTCHAR yen
ENCODING 165
SWIDTH 611 0
DWIDTH 17 0
BBX 15 20 1 0
BITMAP
600C
E00E
700C
701C
3018
3838
FC7E
FEFE
0FE0
07C0
0380
7FFC
7FFC
0380
0380
0380
0380
0380
0380
0100
ENDCHAR
STARTCHAR brokenbar
ENCODING 166
SWIDTH 222 0
DWIDTH 6 0
BBX 2 24 2 -5
BITMAP
C0
C0
C0
C0
C0
C0
C0
C0
C0
C0
00
00
00
00
C0
C0
C0
C0
C0
C0
C0
C0
C0
C0
ENDCHAR
STARTCHAR section
ENCODING 167
SWIDTH 500 0
DWIDTH 14 0
BBX 12 20 1 0
BITMAP
3FC0
7FC0
7000
6000
7000
7E00
FF80
EFE0
E1E0
F870
7E30
1FF0
07F0
00E0
0060
0060
0060
01E0
FFC0
FF80
ENDCHAR
STARTCHAR dieresis
ENCODING 168
SWIDTH 222 0
DWIDTH 6 0
BBX 9 3 -1 17
BITMAP
C300
E380
C300
ENDCHAR
STARTCHAR copyright
ENCODING 169
SWIDTH 800 0
DWIDTH 22 0
BBX 20 20 1 0
BITMAP
01F800
07FE00
0E0780
180180
30F8C0
73FC60
630E60
660670
E60030
E60030
E60030
E60030
660630
630660
73FC60
30F8C0
1801C0
0E0780
07FE00
01F800
ENDCHAR
STARTCHAR ordfeminine
ENCODING 170
SWIDTH 300 0
DWIDTH 8 0
BBX 8 10 0 10
BITMAP
7E
7F
03
1F
73
C3
C3
C3
E7
7F
ENDCHAR
STARTCHAR guillemotleft
ENCODING 171
SWIDTH 444 0
DWIDTH 12 0
BBX 9 11 1 2
BITMAP
1080
3180
3180
7380
6300
E700
E700
6300
3180
3180
1080
ENDCHAR
STARTCHAR logicalnot
ENCODING 172
SWIDTH 600 0
DWIDTH 17 0
BBX 15 8 1 3
BITMAP
FFFE
FFFE
000E
000E
000E
000E
000E
000E
ENDCHAR
STARTCHAR uni00AD
ENCODING 173
SWIDTH 333 0
DWIDTH 9 0
BBX 7 2 1 6
BITMAP
FE
FE
ENDCHAR
STARTCHAR registered
ENCODING 174
SWIDTH 800 0
DWIDTH 22 0
BBX 20 20 1 0
BITMAP
01F800
07FE00
0E0780
1801C0
33F8C0
73FC60
630660
630630
E30E30
E3FC30
E3F030
E31030
631870
630C60
730C60
3306C0
1801C0
0E0780
07FE00
01F800
ENDCHAR
STARTCHAR macron
ENCODING 175
SWIDTH 222 0
DWIDTH 6 0
BBX 8 2 -1 17
BITMAP
FF
FF
ENDCHAR
STARTCHAR degree
ENCODING 176
SWIDTH 400 0
DWIDTH 11 0
BBX 8 8 2 12
BITMAP
3C
FE
C6
83
83
C6
FE
3C
ENDCHAR
STARTCHAR plusminus
ENCODING 177
SWIDTH 600 0
DWIDTH 17 0
BBX 15 15 1 0
BITMAP
0380
0380
0380
0380
FFFE
FFFE
0380
0380
0380
0380
0000
0000
0000
FFFE
FFFE
ENDCHAR
STARTCHAR twosuperior
ENCODING 178
SWIDTH 366 0
DWIDTH 10 0
BBX 9 12 0 8
BITMAP
7F00
7F00
0180
0180
0380
0700
1E00
3800
6000
4000
FF80
7F80
ENDCHAR
STARTCHAR threesuperior
ENCODING 179
SWIDTH 366 0
DWIDTH 10 0
BBX 8 12 1 8
BITMAP
FE
FE
18
70
7E
07
03
01
03
03
FE
FC
ENDCHAR
STARTCHAR acute
ENCODING 180
SWIDTH 222 0
DWIDTH 6 0
BBX 8 4 -1 16
BITMAP
07
1F
FE
E0
ENDCHAR
STARTCHAR mu
ENCODING 181
SWIDTH 556 0
DWIDTH 16 0
BBX 12 21 2 -6
BITMAP
C060
C070
C070
C070
C070
C070
C070
C070
C070
C070
E070
E0F0
F3F0
FFB0
DF30
C000
C000
C000
C000
C000
C000
ENDCHAR
STARTCHAR paragraph
ENCODING 182
SWIDTH 600 0
DWIDTH 17 0
BBX 13 20 1 0
BITMAP
1FF8
3FF8
7F18
FF18
FF18
FF18
FF18
7F18
7F18
3F18
0718
0318
0318
0318
0318
0318
0318
0318
0318
0318
ENDCHAR
STARTCHAR periodcentered
ENCODING 183
SWIDTH 305 0
DWIDTH 9 0
BBX 3 3 3 6
BITMAP
C0
E0
C0
ENDCHAR
STARTCHAR cedilla
ENCODING 184
SWIDTH 222 0
DWIDTH 6 0
BBX 7 6 0 -6
BITMAP
10
30
3C
0E
8E
7C
ENDCHAR
STARTCHAR onesuperior
ENCODING 185
SWIDTH 366 0
DWIDTH 10 0
BBX 6 12 2 8
BITMAP
70
F0
30
30
30
30
30
30
30
30
FC
FC
ENDCHAR
STARTCHAR ordmasculine
ENCODING 186
SWIDTH 334 0
DWIDTH 9 0
BBX 9 10 0 10
BITMAP
1E00
7700
6100
C180
C180
C180
C180
6180
7700
1E00
ENDCHAR
STARTCHAR guillemotright
ENCODING 187
SWIDTH 444 0
DWIDTH 12 0
BBX 9 11 2 2
BITMAP
C600
C600
E700
6300
7380
3180
7380
6300
6300
C600
C600
ENDCHAR
STARTCHAR onequarter
ENCODING 188
SWIDTH 916 0
DWIDTH 26 0
BBX 22 20 2 0
BITMAP
7000C0
F001C0
300180
300300
300700
300600
300C00
301C00
301870
3030F0
FC61B0
FCE330
00C630
018630
038C30
030FFC
060FFC
0E0030
0C0030
080030
ENDCHAR
STARTCHAR onehalf
ENCODING 189
SWIDTH 916 0
DWIDTH 26 0
BBX 23 20 1 0
BITMAP
3800C0
F800C0
180180
180380
180300
180600
180E00
180C00
181BF8
1831FC
7E700C
FE600C
00C00C
01C038
018070
0301C0
070180
060300
0C03FC
0C03FE
ENDCHAR
STARTCHAR threequarters
ENCODING 190
SWIDTH 916 0
DWIDTH 26 0
BBX 23 20 1 0
BITMAP
FF0020
7E0060
1C00C0
3001C0
7E0180
030300
018700
018600
018C18
019C7C
FF18EC
FE31CC
00718C
00630C
00C30C
01C3FE
0183FE
03000C
07000C
060008
ENDCHAR
STARTCHAR questiondown
ENCODING 191
SWIDTH 500 0
DWIDTH 14 0
BBX 12 20 1 -6
BITMAP
0180
0180
0180
0000
0000
0180
0180
0380
0780
0F00
1E00
3C00
7000
7000
6000
E000
6000
7800
3FF0
1FF0
ENDCHAR
STARTCHAR Agrave
ENCODING 192
SWIDTH 667 0
DWIDTH 19 0
BBX 17 25 1 0
BITMAP
060000
078000
07F000
007000
000000
018000
03C000
07E000
077000
0E7000
0C3800
1C1800
181C00
3F0C00
3FCC00
31FE00
703E00
701E00
600F00
E00700
E00700
E00300
E00380
C00380
C00380
ENDCHAR
STARTCHAR Aacute
ENCODING 193
SWIDTH 667 0
DWIDTH 19 0
BBX 17 25 1 0
BITMAP
003000
01F000
07E000
070000
000000
018000
03C000
07E000
077000
0E7000
0C3800
1C1800
181C00
3F0C00
3FCC00
31FE00
703E00
701E00
600F00
E00700
E00700
E00300
E00380
C00380
C00380
ENDCHAR
STARTCHAR Acircumflex
ENCODING 194
SWIDTH 667 0
DWIDTH 19 0
BBX 17 25 1 0
BITMAP
01C000
03E000
076000
0E3000
000000
018000
03C000
07E000
077000
0E7000
0C3800
1C1800
181C00
3F0C00
3FCC00
31FE00
703E00
701E00
600F00
E00700
E00700
E00300
E00380
C00380
C00380
ENDCHAR
STARTCHAR Atilde
ENCODING 195
SWIDTH 667 0
DWIDTH 19 0
BBX 17 24 1 0
BITMAP
078800
0FF800
08F000
000000
018000
03C000
07E000
077000
0E7000
0C3800
1C1800
181C00
3F0C00
3FCC00
31FE00
703E00
701E00
600F00
E00700
E00700
E00300
E00380
C00380
C00380
ENDCHAR
STARTCHAR Adieresis
ENCODING 196
SWIDTH 667 0
DWIDTH 19 0
BBX 17 24 1 0
BITMAP
0C3800
0E3800
0C3000
000000
018000
03C000
07E000
077000
0E7000
0C3800
1C1800
181C00
3F0C00
3FCC00
31FE00
703E00
701E00
600F00
E00700
E00700
E00300
E00380
C00380
C00380
ENDCHAR
STARTCHAR Aring
ENCODING 197
SWIDTH 667 0
DWIDTH 19 0
BBX 17 26 1 0
BITMAP
01E000
022000
022000
022000
03E000
000000
018000
03C000
07E000
077000
0E7000
0C3800
1C1800
181C00
3F0C00
3FCC00
31FE00
703E00
701E00
600F00
E00700
E00700
E00300
E00380
C00380
C00380
ENDCHAR
STARTCHAR AE
ENCODING 198
SWIDTH 944 0
DWIDTH 26 0
BBX 25 20 0 0
BITMAP
000FFF80
001FFF80
007B0000
00F30000
01E30000
01C3FF80
038FFF80
073FF000
06FB0000
0FE30000
1F830000
1F030000
3C030000
3C030000
38030000
70030000
70030000
60030000
E003FF80
4003FF80
ENDCHAR
STARTCHAR Ccedilla
ENCODING 199
SWIDTH 611 0
DWIDTH 17 0
BBX 15 26 1 -6
BITMAP
07FE
1FFE
3E00
7800
7000
E000
E000
E000
E000
E000
E000
6000
7000
7800
3800
1E00
0F00
07F0
03FE
007E
00C0
00C0
00F0
0018
0238
01F0
ENDCHAR
STARTCHAR Egrave
ENCODING 200
SWIDTH 556 0
DWIDTH 16 0
BBX 12 25 2 0
BITMAP
1800
3E00
1FC0
01C0
0000
FFF0
FFF0
E000
E000
E000
FFF0
FFF0
E000
E000
E000
E000
E000
E000
E000
E000
E000
E000
E000
FFF0
FFF0
ENDCHAR
STARTCHAR Eacute
ENCODING 201
SWIDTH 556 0
DWIDTH 16 0
BBX 12 25 2 0
BITMAP
0180
07C0
3F80
3800
0000
FFF0
FFF0
E000
E000
E000
FFF0
FFF0
E000
E000
E000
E000
E000
E000
E000
E000
E000
E000
E000
FFF0
FFF0
ENDCHAR
STARTCHAR Ecircumflex
ENCODING 202
SWIDTH 556 0
DWIDTH 16 0
BBX 12 25 2 0
BITMAP
0E00
0F00
1980
30C0
0000
FFF0
FFF0
E000
E000
E000
FFF0
FFF0
E000
E000
E000
E000
E000
E000
E000
E000
E000
E000
E000
FFF0
FFF0
ENDCHAR
STARTCHAR Edieresis
ENCODING 203
SWIDTH 556 0
DWIDTH 16 0
BBX 12 24 2 0
BITMAP
30C0
71E0
30C0
0000
FFF0
FFF0
E000
E000
E000
FFF0
FFF0
E000
E000
E000
E000
E000
E000
E000
E000
E000
E000
E000
FFF0
FFF0
ENDCHAR
STARTCHAR Igrave
ENCODING 204
SWIDTH 222 0
DWIDTH 6 0
BBX 8 25 -1 0
BITMAP
60
F8
7F
07
00
18
18
18
18
18
18
18
18
18
18
18
18
18
18
18
18
18
18
18
18
ENDCHAR
STARTCHAR Iacute
ENCODING 205
SWIDTH 222 0
DWIDTH 6 0
BBX 8 25 -1 0
BITMAP
02
1F
7E
E0
00
18
18
18
18
18
18
18
18
18
18
18
18
18
18
18
18
18
18
18
18
ENDCHAR
STARTCHAR Icircumflex
ENCODING 206
SWIDTH 222 0
DWIDTH 6 0
BBX 8 25 -1 0
BITMAP
18
3C
66
E3
00
18
18
18
18
18
18
18
18
18
18
18
18
18
18
18
18
18
18
18
18
ENDCHAR
STARTCHAR Idieresis
ENCODING 207
SWIDTH 222 0
DWIDTH 6 0
BBX 9 24 -1 0
BITMAP
C300
E380
C300
0000
1800
1800
1800
1800
1800
1800
1800
1800
1800
1800
1800
1800
1800
1800
1800
1800
1800
1800
1800
1800
ENDCHAR
STARTCHAR Eth
ENCODING 208
SWIDTH 667 0
DWIDTH 19 0
BBX 17 20 0 0
BITMAP
3F0000
3FE000
37F800
303C00
301E00
300F00
300700
300380
FF8380
FFC180
7F0180
300180
300180
300180
300380
300380
300700
301F00
3FFE00
3FF800
ENDCHAR
STARTCHAR Ntilde
ENCODING 209
SWIDTH 611 0
DWIDTH 17 0
BBX 13 24 2 0
BITMAP
1E20
3FE0
21C0
0000
E018
F018
F018
F818
DC18
CF18
C7F8
C1F8
C038
C018
C018
C018
C018
C018
C018
C018
C018
C018
C018
C018
ENDCHAR
STARTCHAR Ograve
ENCODING 210
SWIDTH 722 0
DWIDTH 20 0
BBX 18 25 1 0
BITMAP
020000
07C000
03F000
007800
000000
03F000
0FFC00
1F3E00
3C0F00
380780
700380
7001C0
E001C0
E001C0
E001C0
E001C0
E001C0
E001C0
7001C0
700380
380780
3C0F00
1F1E00
0FFC00
03F000
ENDCHAR
STARTCHAR Oacute
ENCODING 211
SWIDTH 722 0
DWIDTH 20 0
BBX 18 25 1 0
BITMAP
001000
00F800
03F000
078000
000000
03F000
0FFC00
1F3E00
3C0F00
380780
700380
7001C0
E001C0
E001C0
E001C0
E001C0
E001C0
E001C0
7001C0
700380
380780
3C0F00
1F1E00
0FFC00
03F000
ENDCHAR
STARTCHAR Ocircumflex
ENCODING 212
SWIDTH 722 0
DWIDTH 20 0
BBX 18 25 1 0
BITMAP
00C000
01E000
033000
071800
000000
03F000
0FFC00
1F3E00
3C0F00
380780
700380
7001C0
E001C0
E001C0
E001C0
E001C0
E001C0
E001C0
7001C0
700380
380780
3C0F00
1F1E00
0FFC00
03F000
ENDCHAR
STARTCHAR Otilde
ENCODING 213
SWIDTH 722 0
DWIDTH 20 0
BBX 18 24 1 0
BITMAP
03C400
07FC00
0C7800
000000
03F000
0FFC00
1F3E00
3C0F00
380780
700380
7001C0
E001C0
E001C0
E001C0
E001C0
E001C0
E001C0
7001C0
700380
380780
3C0F00
1F1E00
0FFC00
03F000
ENDCHAR
STARTCHAR Odieresis
ENCODING 214
SWIDTH 722 0
DWIDTH 20 0
BBX 18 24 1 0
BITMAP
061800
071C00
061800
000000
03F000
0FFC00
1F3E00
3C0F00
380780
700380
7001C0
E001C0
E001C0
E001C0
E001C0
E001C0
E001C0
7001C0
700380
380780
3C0F00
1F1E00
0FFC00
03F000
ENDCHAR
STARTCHAR multiply
ENCODING 215
SWIDTH 600 0
DWIDTH 17 0
BBX 14 15 1 0
BITMAP
4008
E01C
703C
3838
1C70
0EE0
07C0
0380
07C0
0EE0
1C70
3838
703C
E01C
4008
ENDCHAR
STARTCHAR Oslash
ENCODING 216
SWIDTH 722 0
DWIDTH 20 0
BBX 18 25 1 -3
BITMAP
000600
000600
03FC00
0FFC00
1F3E00
3C1F00
383F80
703380
703180
E061C0
E061C0
E0C1C0
E0C1C0
E181C0
E181C0
7301C0
730380
3E0780
3E0F00
1F1E00
0FFC00
1FF000
180000
180000
100000
ENDCHAR
STARTCHAR Ugrave
ENCODING 217
SWIDTH 611 0
DWIDTH 17 0
BBX 15 25 1 0
BITMAP
0C00
0F80
07E0
00E0
0000
3018
701C
701C
701C
600C
600C
600C
600C
600E
E00E
E00E
E00E
C006
E006
E00E
E00E
701C
7EFC
1FF0
0FC0
ENDCHAR
STARTCHAR Uacute
ENCODING 218
SWIDTH 611 0
DWIDTH 17 0
BBX 15 25 1 0
BITMAP
0060
03E0
0FC0
0E00
0000
3018
701C
701C
701C
600C
600C
600C
600C
600E
E00E
E00E
E00E
C006
E006
E00E
E00E
701C
7EFC
1FF0
0FC0
ENDCHAR
STARTCHAR Ucircumflex
ENCODING 219
SWIDTH 611 0
DWIDTH 17 0
BBX 15 25 1 0
BITMAP
0380
07C0
0EE0
0C70
0000
3018
701C
701C
701C
600C
600C
600C
600C
600E
E00E
E00E
E00E
C006
E006
E00E
E00E
701C
7EFC
1FF0
0FC0
ENDCHAR
STARTCHAR Udieresis
ENCODING 220
SWIDTH 611 0
DWIDTH 17 0
BBX 15 24 1 0
BITMAP
1C70
1C70
1C70
0000
3018
701C
701C
701C
600C
600C
600C
600C
600E
E00E
E00E
E00E
C006
E006
E00E
E00E
701C
7EFC
1FF0
0FC0
ENDCHAR
STARTCHAR Yacute
ENCODING 221
SWIDTH 556 0
DWIDTH 16 0
BBX 14 25 1 0
BITMAP
0040
03E0
0FC0
1C00
0000
C00C
C01C
E01C
E038
7038
7070
3870
1CE0
1FC0
0F80
0700
0300
0300
0300
0300
0300
0300
0300
0300
0300
ENDCHAR
STARTCHAR Thorn
ENCODING 222
SWIDTH 556 0
DWIDTH 16 0
BBX 13 20 2 0
BITMAP
C000
E000
E000
E000
FFF0
FFF8
E038
E018
E038
E078
E1F0
EFE0
FF80
FC00
E000
E000
E000
E000
E000
C000
ENDCHAR
STARTCHAR germandbls
ENCODING 223
SWIDTH 556 0
DWIDTH 16 0
BBX 14 20 1 0
BITMAP
1F80
3FC0
38E0
70E0
71C0
F3C0
F700
7E00
7E00
7780
77E0
71F8
703C
701C
701C
701C
701C
7078
7FF0
3FE0
ENDCHAR
STARTCHAR agrave
ENCODING 224
SWIDTH 500 0
DWIDTH 14 0
BBX 12 21 0 0
BITMAP
0800
1E00
1FC0
01E0
0000
0000
3FC0
7FE0
0070
0030
0030
07F0
1FF0
7C30
7030
E030
E030
E070
7070
7FF0
1F30
ENDCHAR
STARTCHAR aacute
ENCODING 225
SWIDTH 500 0
DWIDTH 14 0
BBX 12 21 0 0
BITMAP
0040
03E0
0FC0
1E00
0000
0000
3FC0
7FE0
0070
0030
0030
07F0
1FF0
7C30
7030
E030
E030
E070
7070
7FF0
1F30
ENDCHAR
STARTCHAR acircumflex
ENCODING 226
SWIDTH 500 0
DWIDTH 14 0
BBX 12 21 0 0
BITMAP
0300
0780
0DC0
18E0
0000
0000
3FC0
7FE0
0070
0030
0030
07F0
1FF0
7C30
7030
E030
E030
E070
7070
7FF0
1F30
ENDCHAR
STARTCHAR atilde
ENCODING 227
SWIDTH 500 0
DWIDTH 14 0
BBX 12 20 0 0
BITMAP
1E30
3FE0
21C0
0000
0000
3FC0
7FE0
0070
0030
0030
07F0
1FF0
7C30
7030
E030
E030
E070
7070
7FF0
1F30
ENDCHAR
STARTCHAR adieresis
ENCODING 228
SWIDTH 500 0
DWIDTH 14 0
BBX 12 20 0 0
BITMAP
1860
38E0
1860
0000
0000
3FC0
7FE0
0070
0030
0030
07F0
1FF0
7C30
7030
E030
E030
E070
7070
7FF0
1F30
ENDCHAR
STARTCHAR aring
ENCODING 229
SWIDTH 500 0
DWIDTH 14 0
BBX 12 22 0 0
BITMAP
0780
0CC0
08C0
0CC0
0780
0000
0000
3FC0
7FE0
0070
0030
0030
07F0
1FF0
7C30
7030
E030
E030
E070
7070
7FF0
1F30
ENDCHAR
STARTCHAR ae
ENCODING 230
SWIDTH 833 0
DWIDTH 23 0
BBX 21 15 1 0
BITMAP
7F87C0
7FDFE0
00FC70
007038
007018
07FFF8
3FFFF8
786000
E06000
C07000
C07000
C07000
F0FC00
7FDFF8
3F87F8
ENDCHAR
STARTCHAR ccedilla
ENCODING 231
SWIDTH 500 0
DWIDTH 14 0
BBX 13 21 1 -6
BITMAP
1FF0
3FF0
7800
7000
E000
E000
E000
E000
E000
6000
7000
3800
3F00
0FF8
07F8
0100
0300
03C0
00E0
0860
07C0
ENDCHAR
STARTCHAR egrave
ENCODING 232
SWIDTH 556 0
DWIDTH 16 0
BBX 14 20 1 0
BITMAP
1E00
1FC0
03E0
0000
0000
0FC0
1FE0
3870
7038
6018
E018
FFF8
FFF8
E000
E000
6000
7000
3800
3FFC
0FF8
ENDCHAR
STARTCHAR eacute
ENCODING 233
SWIDTH 556 0
DWIDTH 16 0
BBX 14 20 1 0
BITMAP
01E0
0FE0
1F00
0000
0000
0FC0
1FE0
3870
7038
6018
E018
FFF8
FFF8
E000
E000
6000
7000
3800
3FFC
0FF8
ENDCHAR
STARTCHAR ecircumflex
ENCODING 234
SWIDTH 556 0
DWIDTH 16 0
BBX 14 21 1 0
BITMAP
0300
0780
0CC0
18E0
0000
0000
0FC0
1FE0
3870
7038
6018
E018
FFF8
FFF8
E000
E000
6000
7000
3800
3FFC
0FF8
ENDCHAR
STARTCHAR edieresis
ENCODING 235
SWIDTH 556 0
DWIDTH 16 0
BBX 14 20 1 0
BITMAP
1860
38F0
1860
0000
0000
0FC0
1FE0
3870
7038
6018
E018
FFF8
FFF8
E000
E000
6000
7000
3800
3FFC
0FF8
ENDCHAR
STARTCHAR igrave
ENCODING 236
SWIDTH 222 0
DWIDTH 6 0
BBX 8 21 -1 0
BITMAP
40
F0
7E
0F
00
00
18
18
18
18
18
18
18
18
18
18
18
18
18
18
18
ENDCHAR
STARTCHAR iacute
ENCODING 237
SWIDTH 222 0
DWIDTH 6 0
BBX 8 20 -1 0
BITMAP
0F
7F
F0
00
00
18
18
18
18
18
18
18
18
18
18
18
18
18
18
18
ENDCHAR
STARTCHAR icircumflex
ENCODING 238
SWIDTH 222 0
DWIDTH 6 0
BBX 8 21 -1 0
BITMAP
18
3C
66
E3
00
00
18
18
18
18
18
18
18
18
18
18
18
18
18
18
18
ENDCHAR
STARTCHAR idieresis
ENCODING 239
SWIDTH 222 0
DWIDTH 6 0
BBX 9 20 -1 0
BITMAP
C300
E380
C300
0000
0000
1800
1800
1800
1800
1800
1800
1800
1800
1800
1800
1800
1800
1800
1800
1800
ENDCHAR
STARTCHAR eth
ENCODING 240
SWIDTH 556 0
DWIDTH 16 0
BBX 13 21 1 0
BITMAP
0060
3EE0
1F80
07C0
1DE0
18E0
0070
0F30
3FF8
3878
7038
6038
E018
E018
E018
E018
6038
7030
3870
3FE0
0F80
ENDCHAR
STARTCHAR ntilde
ENCODING 241
SWIDTH 556 0
DWIDTH 16 0
BBX 12 20 2 0
BITMAP
3C60
7FC0
4380
0000
0000
CF80
DFC0
F9E0
E060
E070
C070
C070
C070
C070
C070
C070
C070
C070
C070
C060
ENDCHAR
STARTCHAR ograve
ENCODING 242
SWIDTH 556 0
DWIDTH 16 0
BBX 13 20 1 0
BITMAP
1E00
1F80
03E0
0000
0000
0F80
1FE0
38F0
7030
6038
E018
E018
C018
E018
E018
6038
7038
38F0
1FE0
0F80
ENDCHAR
STARTCHAR oacute
ENCODING 243
SWIDTH 556 0
DWIDTH 16 0
BBX 13 20 1 0
BITMAP
01C0
0FC0
1E00
0000
0000
0F80
1FE0
38F0
7030
6038
E018
E018
C018
E018
E018
6038
7038
38F0
1FE0
0F80
ENDCHAR
STARTCHAR ocircumflex
ENCODING 244
SWIDTH 556 0
DWIDTH 16 0
BBX 13 21 1 0
BITMAP
0700
0780
0DC0
18E0
0000
0000
0F80
1FE0
38F0
7030
6038
E018
E018
C018
E018
E018
6038
7038
38F0
1FE0
0F80
ENDCHAR
STARTCHAR otilde
ENCODING 245
SWIDTH 556 0
DWIDTH 16 0
BBX 13 20 1 0
BITMAP
1E30
3FE0
21C0
0000
0000
0F80
1FE0
38F0
7030
6038
E018
E018
C018
E018
E018
6038
7038
38F0
1FE0
0F80
ENDCHAR
STARTCHAR odieresis
ENCODING 246
SWIDTH 556 0
DWIDTH 16 0
BBX 13 20 1 0
BITMAP
1860
38E0
1860
0000
0000
0F80
1FE0
38F0
7030
6038
E018
E018
C018
E018
E018
6038
7038
38F0
1FE0
0F80
ENDCHAR
STARTCHAR divide
ENCODING 247
SWIDTH 600 0
DWIDTH 17 0
BBX 15 16 1 -1
BITMAP
0380
0780
0780
0380
0000
0000
0000
FFFE
FFFE
0000
0000
0000
0380
0780
0780
0380
ENDCHAR
STARTCHAR oslash
ENCODING 248
SWIDTH 556 0
DWIDTH 16 0
BBX 13 19 1 -2
BITMAP
0030
0060
0FE0
1FE0
38F0
71B0
61B8
E398
E318
C318
E618
E618
6C38
7C38
38F0
1FE0
3F80
3000
2000
ENDCHAR
STARTCHAR ugrave
ENCODING 249
SWIDTH 556 0
DWIDTH 16 0
BBX 12 20 2 0
BITMAP
3C00
3F80
07C0
0000
0000
C060
C070
C070
C070
C070
C070
C070
C070
C070
C070
E070
E0F0
F3F0
7FB0
1F30
ENDCHAR
STARTCHAR uacute
ENCODING 250
SWIDTH 556 0
DWIDTH 16 0
BBX 12 21 2 0
BITMAP
0080
0780
1F80
3C00
0000
0000
C060
C070
C070
C070
C070
C070
C070
C070
C070
C070
E070
E0F0
F3F0
7FB0
1F30
ENDCHAR
STARTCHAR ucircumflex
ENCODING 251
SWIDTH 556 0
DWIDTH 16 0
BBX 12 21 2 0
BITMAP
0E00
0F00
1B80
31C0
0000
0000
C060
C070
C070
C070
C070
C070
C070
C070
C070
C070
E070
E0F0
F3F0
7FB0
1F30
ENDCHAR
STARTCHAR udieresis
ENCODING 252
SWIDTH 556 0
DWIDTH 16 0
BBX 12 20 2 0
BITMAP
30C0
71C0
30C0
0000
0000
C060
C070
C070
C070
C070
C070
C070
C070
C070
C070
E070
E0F0
F3F0
7FB0
1F30
ENDCHAR
STARTCHAR yacute
ENCODING 253
SWIDTH 500 0
DWIDTH 14 0
BBX 13 27 1 -6
BITMAP
0080
03C0
1FC0
3C00
0000
0000
C010
C038
C038
E030
E030
E070
6070
7060
70E0
30E0
39C0
19C0
1F80
0F00
0700
0E00
0E00
1C00
3800
3800
3000
ENDCHAR
STARTCHAR thorn
ENCODING 254
SWIDTH 556 0
DWIDTH 16 0
BBX 13 26 2 -6
BITMAP
C000
C000
C000
C000
C000
FE00
FF80
C7C0
C1E0
C070
C070
C030
C038
C038
C030
C030
C070
C1E0
FFC0
FF80
C000
C000
C000
C000
C000
C000
ENDCHAR
STARTCHAR ydieresis
ENCODING 255
SWIDTH 500 0
DWIDTH 14 0
BBX 13 26 1 -6
BITMAP
30C0
79E0
30C0
0000
0000
C010
C038
C038
E030
E030
E070
6070
7060
70E0
30E0
39C0
19C0
1F80
0F00
0700
0E00
0E00
1C00
3800
3800
3000
ENDCHAR
STARTCHAR .notdef
ENCODING -1
SWIDTH 500 0
DWIDTH 14 0
BBX 14 19 0 0
BITMAP
FFFC
E01C
A014
B034
9864
8844
8CC4
8784
8304
8304
8784
8484
8CC4
9864
9024
B034
E01C
C00C
FFFC
ENDCHAR
STARTCHAR quoteright
ENCODING -1
SWIDTH 222 0
DWIDTH 6 0
BBX 4 7 1 13
BITMAP
30
70
70
60
E0
C0
C0
ENDCHAR
STARTCHAR quoteleft
ENCODING -1
SWIDTH 222 0
DWIDTH 6 0
BBX 4 7 1 13
BITMAP
C0
C0
E0
60
70
30
30
ENDCHAR
STARTCHAR fraction
ENCODING -1
SWIDTH 167 0
DWIDTH 5 0
BBX 14 20 -5 0
BITMAP
0004
000C
001C
0018
0030
0070
0060
00C0
01C0
0180
0300
0600
0E00
0C00
1800
3800
3000
6000
E000
C000
ENDCHAR
STARTCHAR florin
ENCODING -1
SWIDTH 611 0
DWIDTH 17 0
BBX 16 26 0 -6
BITMAP
001F
003F
0078
0070
0060
00E0
00E0
00E0
0FFC
0FFC
00C0
01C0
01C0
01C0
0180
0180
0180
0380
0380
0380
0300
0300
0700
1E00
FE00
7800
ENDCHAR
STARTCHAR quotedblleft
ENCODING -1
SWIDTH 389 0
DWIDTH 11 0
BBX 9 7 1 13
BITMAP
C600
CE00
E600
E700
6300
7300
3180
ENDCHAR
STARTCHAR guilsinglleft
ENCODING -1
SWIDTH 278 0
DWIDTH 8 0
BBX 4 11 2 2
BITMAP
10
30
70
60
E0
C0
E0
60
70
30
30
ENDCHAR
STARTCHAR guilsinglright
ENCODING -1
SWIDTH 278 0
DWIDTH 8 0
BBX 4 11 2 2
BITMAP
80
C0
C0
60
70
30
70
60
E0
C0
80
ENDCHAR
STARTCHAR fi
ENCODING -1
SWIDTH 500 0
DWIDTH 14 0
BBX 13 20 0 0
BITMAP
0FF0
1FF8
1C38
3830
3800
7FF0
FFF8
3838
3838
3838
3838
3838
3838
3838
3838
3838
3838
3838
3838
3030
ENDCHAR
STARTCHAR fl
ENCODING -1
SWIDTH 500 0
DWIDTH 14 0
BBX 13 20 0 0
BITMAP
0FF0
1FF8
3C38
3838
3838
7F38
FFB8
3838
3838
3838
3838
3838
3838
3838
3838
3838
3838
3838
3838
3030
ENDCHAR
STARTCHAR endash
ENCODING -1
SWIDTH 500 0
DWIDTH 14 0
BBX 14 2 0 6
BITMAP
FFFC
FFFC
ENDCHAR
STARTCHAR dagger
ENCODING -1
SWIDTH 389 0
DWIDTH 11 0
BBX 9 20 1 0
BITMAP
1800
1C00
1C00
1C00
1C00
FF80
FF80
1800
1C00
1C00
1C00
1C00
1C00
1C00
1C00
1C00
1C00
1C00
1C00
1C00
ENDCHAR
STARTCHAR daggerdbl
ENCODING -1
SWIDTH 389 0
DWIDTH 11 0
BBX 9 20 1 0
BITMAP
1800
1C00
1C00
1C00
1C00
FF80
FF80
1800
1C00
1C00
1C00
1800
1800
FF80
FF80
1C00
1C00
1C00
1C00
1800
ENDCHAR
STARTCHAR bullet
ENCODING -1
SWIDTH 500 0
DWIDTH 14 0
BBX 10 10 2 5
BITMAP
0C00
3F00
7F80
FF80
FFC0
FFC0
FFC0
7F80
7F80
1E00
ENDCHAR
STARTCHAR quotesinglbase
ENCODING -1
SWIDTH 222 0
DWIDTH 6 0
BBX 4 7 1 -3
BITMAP
30
70
70
60
E0
C0
C0
ENDCHAR
STARTCHAR quotedblbase
ENCODING -1
SWIDTH 389 0
DWIDTH 11 0
BBX 9 7 1 -3
BITMAP
3300
7380
7300
6700
E600
C600
CC00
ENDCHAR
STARTCHAR quotedblright
ENCODING -1
SWIDTH 389 0
DWIDTH 11 0
BBX 9 7 1 13
BITMAP
3300
7380
7300
6700
E600
C600
CC00
ENDCHAR
STARTCHAR ellipsis
ENCODING -1
SWIDTH 1000 0
DWIDTH 28 0
BBX 22 3 3 0
BITMAP
603018
E0301C
603018
ENDCHAR
STARTCHAR perthousand
ENCODING -1
SWIDTH 1000 0
DWIDTH 28 0
BBX 28 20 0 0
BITMAP
3C0C0000
7F0C0000
631C0000
C3980000
C1980000
C1B00000
C3B00000
63600000
7F600000
3CC00000
00C00000
018F03C0
019F8FE0
03B9CC70
0330D830
0730F830
0630D830
0E39CC70
0C1F8FE0
0C0F07C0
ENDCHAR
STARTCHAR circumflex
ENCODING -1
SWIDTH 222 0
DWIDTH 6 0
BBX 8 4 -1 16
BITMAP
1C
3E
66
C3
ENDCHAR
STARTCHAR tilde
ENCODING -1
SWIDTH 222 0
DWIDTH 6 0
BBX 10 4 -2 16
BITMAP
2000
7C40
C7C0
0380
ENDCHAR
STARTCHAR breve
ENCODING -1
SWIDTH 222 0
DWIDTH 6 0
BBX 8 4 -1 16
BITMAP
81
C3
7E
3C
ENDCHAR
STARTCHAR dotaccent
ENCODING -1
SWIDTH 222 0
DWIDTH 6 0
BBX 3 3 2 17
BITMAP
C0
E0
C0
ENDCHAR
STARTCHAR ring
ENCODING -1
SWIDTH 222 0
DWIDTH 6 0
BBX 6 5 0 16
BITMAP
78
CC
C4
CC
78
ENDCHAR
STARTCHAR hungarumlaut
ENCODING -1
SWIDTH 222 0
DWIDTH 6 0
BBX 11 7 -2 14
BITMAP
0860
1CE0
39C0
7180
6300
C600
0200
ENDCHAR
STARTCHAR ogonek
ENCODING -1
SWIDTH 222 0
DWIDTH 6 0
BBX 7 6 -1 -6
BITMAP
0C
30
60
C0
FE
78
ENDCHAR
STARTCHAR caron
ENCODING -1
SWIDTH 222 0
DWIDTH 6 0
BBX 8 4 -1 16
BITMAP
E3
66
3C
18
ENDCHAR
STARTCHAR emdash
ENCODING -1
SWIDTH 1000 0
DWIDTH 28 0
BBX 28 2 0 6
BITMAP
FFFFFFF0
FFFFFFF0
ENDCHAR
STARTCHAR Lslash
ENCODING -1
SWIDTH 444 0
DWIDTH 12 0
BBX 13 20 -1 0
BITMAP
1800
1C00
1C00
1C00
1C00
1C00
1C00
1D80
1F80
3E00
FC00
DC00
1C00
1C00
1C00
1C00
1C00
1C00
1FF8
1FF8
ENDCHAR
STARTCHAR OE
ENCODING -1
SWIDTH 1000 0
DWIDTH 28 0
BBX 26 20 1 0
BITMAP
07E1FFC0
0FFBFFC0
3E3F8000
380F8000
70078000
7007FFC0
E003FFC0
E0038000
E0038000
E0038000
E0038000
E0038000
E0038000
E0038000
70078000
70078000
380F8000
3E3F8000
0FFBFFC0
07E1FFC0
ENDCHAR
STARTCHAR dotlessi
ENCODING -1
SWIDTH 222 0
DWIDTH 6 0
BBX 2 15 2 0
BITMAP
C0
C0
C0
C0
C0
C0
C0
C0
C0
C0
C0
C0
C0
C0
C0
ENDCHAR
STARTCHAR lslash
ENCODING -1
SWIDTH 222 0
DWIDTH 6 0
BBX 8 20 -1 0
BITMAP
18
18
18
18
18
18
1B
1F
3C
F8
58
18
18
18
18
18
18
18
18
18
ENDCHAR
STARTCHAR oe
ENCODING -1
SWIDTH 944 0
DWIDTH 26 0
BBX 24 15 1 0
BITMAP
0F81F8
1FE7FC
38FF0E
703E07
603C07
E01C03
E01FFF
C01FFF
E01800
E01C00
E03C00
703E00
38FF00
1FE7FF
0F81FF
ENDCHAR
STARTCHAR trademark
ENCODING -1
SWIDTH 990 0
DWIDTH 28 0
BBX 24 12 2 8
BITMAP
FF9E07
FF9E0F
181E0F
181B0F
181B1B
18199B
1819B3
1819B3
1818F3
1818E3
1818E3
181863
ENDCHAR
STARTCHAR minus
ENCODING -1
SWIDTH 600 0
DWIDTH 17 0
BBX 15 2 1 6
BITMAP
FFFE
FFFE
ENDCHAR
STARTCHAR Scaron
ENCODING -1
SWIDTH 611 0
DWIDTH 17 0
BBX 15 25 1 0
BITMAP
0C70
0EE0
07C0
0380
0000
3FF0
7FF8
F000
E000
E000
F000
7FE0
3FF8
01FC
001E
000E
000E
000E
000E
000E
000E
001C
00F8
FFF0
FFC0
ENDCHAR
STARTCHAR Ydieresis
ENCODING -1
SWIDTH 556 0
DWIDTH 16 0
BBX 14 24 1 0
BITMAP
1860
1C70
1860
0000
C00C
C01C
E01C
E038
7038
7070
3870
1CE0
1FC0
0F80
0700
0300
0300
0300
0300
0300
0300
0300
0300
0300
ENDCHAR
STARTCHAR Zcaron
ENCODING -1
SWIDTH 500 0
DWIDTH 14 0
BBX 12 25 1 0
BITMAP
38C0
1D80
0F80
0700
0000
7FE0
7FF0
0070
0070
0060
00E0
00E0
01C0
0380
0700
0F00
1E00
3C00
7800
7000
E000
E000
C000
FFF0
FFF0
ENDCHAR
STARTCHAR scaron
ENCODING -1
SWIDTH 500 0
DWIDTH 14 0
BBX 12 21 1 0
BITMAP
30C0
1980
0F00
0F00
0000
0000
3FE0
7FE0
E000
E000
F800
7FC0
1FE0
00F0
0030
0030
0030
0070
00F0
FFE0
FF80
ENDCHAR
STARTCHAR zcaron
ENCODING -1
SWIDTH 444 0
DWIDTH 12 0
BBX 11 21 1 0
BITMAP
71C0
3B80
1F00
0E00
0000
0000
7FC0
FFE0
00E0
01C0
03C0
0780
0F00
1E00
3C00
7800
F000
E000
C000
FFE0
FFE0
ENDCHAR
STARTCHAR Delta
ENCODING -1
SWIDTH 707 0
DWIDTH 20 0
BBX 18 20 1 0
BITMAP
01E000
01E000
01E000
037000
033000
063800
061800
0E1800
0C1C00
0C0C00
180E00
180600
380600
300700
300300
600380
600180
E00180
FFFFC0
FFFFC0
ENDCHAR
STARTCHAR Omega
ENCODING -1
SWIDTH 795 0
DWIDTH 22 0
BBX 20 19 1 0
BITMAP
01F800
07FE00
0E0780
1C0180
3801C0
3000E0
7000E0
600060
600060
600060
600060
600060
7000E0
3000C0
1800C0
180180
0C0300
FF07F0
FF0FF0
ENDCHAR
STARTCHAR pi
ENCODING -1
SWIDTH 621 0
DWIDTH 17 0
BBX 17 14 0 0
BITMAP
7FFF80
FFFF80
0C0C00
0C0C00
0C0C00
0C0C00
0C0C00
1C0C00
1C0C00
180C00
180C00
180C00
380C00
300C00
ENDCHAR
STARTCHAR Euro
ENCODING -1
SWIDTH 611 0
DWIDTH 17 0
BBX 15 20 2 0
BITMAP
03FE
0FFE
1F00
3800
3800
FFE0
FFE0
3000
3000
3000
FFE0
FFE0
3800
1800
1C00
0E00
0780
03F0
01FE
007E
ENDCHAR
STARTCHAR estimated
ENCODING -1
SWIDTH 844 0
DWIDTH 24 0
BBX 22 20 1 0
BITMAP
01FC00
060300
0800C0
100060
300030
700030
700038
F00038
F0003C
F0003C
FFFFFC
F00000
F00000
700000
700000
300000
300020
0800C0
060180
01FE00
ENDCHAR
STARTCHAR partialdiff
ENCODING -1
SWIDTH 592 0
DWIDTH 17 0
BBX 14 21 1 0
BITMAP
1F80
7FE0
2070
0030
0038
0018
001C
001C
0F8C
3FEC
386C
701C
601C
E01C
C018
E018
E038
6030
7060
3FC0
0F80
ENDCHAR
STARTCHAR product
ENCODING -1
SWIDTH 758 0
DWIDTH 21 0
BBX 19 22 1 -3
BITMAP
FFFFE0
FFFFE0
180300
180300
180300
180300
180300
180300
180300
180300
180300
180300
180300
180300
180300
180300
180300
180300
180300
180300
180300
180300
ENDCHAR
STARTCHAR summation
ENCODING -1
SWIDTH 601 0
DWIDTH 17 0
BBX 15 22 1 -3
BITMAP
FFFE
FFFE
7000
3000
3800
1C00
0E00
0700
0380
0380
01C0
01C0
0180
0300
0600
0C00
1C00
3800
7000
6000
FFFE
FFFE
ENDCHAR
STARTCHAR uni2219
ENCODING -1
SWIDTH 305 0
DWIDTH 9 0
BBX 3 3 3 6
BITMAP
C0
E0
C0
ENDCHAR
STARTCHAR radical
ENCODING -1
SWIDTH 612 0
DWIDTH 17 0
BBX 16 26 1 -4
BITMAP
0003
0003
0003
0002
0006
0006
0004
0004
000C
000C
0008
0008
7018
F818
1810
1C10
0C30
0C30
0620
0620
0660
0360
0340
0140
01C0
01C0
ENDCHAR
STARTCHAR infinity
ENCODING -1
SWIDTH 810 0
DWIDTH 23 0
BBX 20 8 1 4
BITMAP
3F07C0
618C60
40D830
C07010
C07010
40D830
618C60
3F07C0
ENDCHAR
STARTCHAR integral
ENCODING -1
SWIDTH 373 0
DWIDTH 10 0
BBX 10 28 0 -5
BITMAP
03C0
07C0
0600
0C00
0C00
0C00
0C00
0C00
0C00
0C00
0C00
0C00
0C00
0C00
0C00
0C00
0C00
0C00
0C00
0C00
0C00
0C00
0C00
0C00
0C00
1C00
F800
6000
ENDCHAR
STARTCHAR approxequal
ENCODING -1
SWIDTH 605 0
DWIDTH 17 0
BBX 14 8 1 4
BITMAP
1E04
778C
C0F8
0000
0000
1E04
778C
C0F8
ENDCHAR
STARTCHAR notequal
ENCODING -1
SWIDTH 605 0
DWIDTH 17 0
BBX 14 14 1 1
BITMAP
0020
0060
0040
00C0
FFFC
0180
0100
0100
0300
0200
FFFC
0400
0C00
0800
ENDCHAR
STARTCHAR lessequal
ENCODING -1
SWIDTH 605 0
DWIDTH 17 0
BBX 14 17 1 0
BITMAP
0004
001C
0078
01C0
0700
1C00
7000
6000
3800
0E00
0380
00F0
003C
000C
0000
0000
FFFC
ENDCHAR
STARTCHAR greaterequal
ENCODING -1
SWIDTH 605 0
DWIDTH 17 0
BBX 13 17 2 0
BITMAP
8000
E000
7800
0E00
0380
00E0
0038
0018
0070
01C0
0700
3C00
F000
C000
0000
0000
FFF8
ENDCHAR
STARTCHAR lozenge
ENCODING -1
SWIDTH 613 0
DWIDTH 17 0
BBX 13 22 2 -2
BITMAP
0700
0700
0D80
0D80
18C0
18E0
3060
6030
6030
C018
C018
C018
E018
6030
3070
3060
18C0
18C0
0D80
0D80
0700
0700
ENDCHAR
STARTCHAR uni02C9
ENCODING -1
SWIDTH 222 0
DWIDTH 6 0
BBX 8 2 -1 17
BITMAP
FF
FF
ENDCHAR
STARTCHAR uni03A9
ENCODING -1
SWIDTH 795 0
DWIDTH 22 0
BBX 20 19 1 0
BITMAP
01F800
07FE00
0E0780
1C0180
3801C0
3000E0
7000E0
600060
600060
600060
600060
600060
7000E0
3000C0
1800C0
180180
0C0300
FF07F0
FF0FF0
ENDCHAR
STARTCHAR afii61289
ENCODING -1
SWIDTH 528 0
DWIDTH 15 0
BBX 13 21 1 0
BITMAP
0780
0FC0
1840
1860
3860
3060
3040
30C0
30C0
3180
3300
3700
3E00
3C00
3000
F000
B800
3818
1C30
0FE0
07C0
ENDCHAR
STARTCHAR uni03BC
ENCODING -1
SWIDTH 556 0
DWIDTH 16 0
BBX 12 21 2 -6
BITMAP
C060
C070
C070
C070
C070
C070
C070
C070
C070
C070
E070
E0F0
F3F0
FFB0
DF30
C000
C000
C000
C000
C000
C000
ENDCHAR
STARTCHAR uni2215
ENCODING -1
SWIDTH 167 0
DWIDTH 5 0
BBX 14 20 -5 0
BITMAP
0004
000C
001C
0018
0030
0070
0060
00C0
01C0
0180
0300
0600
0E00
0C00
1800
3800
3000
6000
E000
C000
ENDCHAR
ENDFONT
